<svg xmlns="http://www.w3.org/2000/svg" fill="none" viewBox="69.09 22.67 137.77 80.22">
<g filter="url(#filter0_bd_12_507)">
<mask id="path-1-inside-1_12_507" fill="white">
<path fill-rule="evenodd" clip-rule="evenodd" d="M125.749 69.9096C125.796 69.9101 125.843 69.9104 125.89 69.9104C132.564 69.9104 137.974 64.5002 137.974 57.8265C137.974 51.1527 132.564 45.7426 125.89 45.7426C125.843 45.7426 125.796 45.7428 125.749 45.7434V45.7426H122.628C122.74 44.9156 122.799 44.0713 122.799 43.2134C122.799 32.97 114.495 24.666 104.251 24.666C94.0078 24.666 85.7039 32.97 85.7039 43.2134C85.7039 44.1799 85.7778 45.1292 85.9203 46.0558C85.0383 45.8509 84.1192 45.7426 83.1747 45.7426C76.501 45.7426 71.0908 51.1527 71.0908 57.8265C71.0908 64.5002 76.501 69.9104 83.1747 69.9104C83.2218 69.9104 83.2689 69.9101 83.3158 69.9095L83.3152 69.9104H125.749V69.9096Z"/>
</mask>
<path fill-rule="evenodd" clip-rule="evenodd" d="M125.749 69.9096C125.796 69.9101 125.843 69.9104 125.89 69.9104C132.564 69.9104 137.974 64.5002 137.974 57.8265C137.974 51.1527 132.564 45.7426 125.89 45.7426C125.843 45.7426 125.796 45.7428 125.749 45.7434V45.7426H122.628C122.74 44.9156 122.799 44.0713 122.799 43.2134C122.799 32.97 114.495 24.666 104.251 24.666C94.0078 24.666 85.7039 32.97 85.7039 43.2134C85.7039 44.1799 85.7778 45.1292 85.9203 46.0558C85.0383 45.8509 84.1192 45.7426 83.1747 45.7426C76.501 45.7426 71.0908 51.1527 71.0908 57.8265C71.0908 64.5002 76.501 69.9104 83.1747 69.9104C83.2218 69.9104 83.2689 69.9101 83.3158 69.9095L83.3152 69.9104H125.749V69.9096Z" fill="url(#paint0_linear_12_507)" shape-rendering="crispEdges"/>
<path d="M125.749 69.9095L125.772 67.9097C125.238 67.9036 124.723 68.1116 124.343 68.4873C123.963 68.863 123.749 69.3752 123.749 69.9095H125.749ZM125.749 45.7434H123.749C123.749 46.2777 123.963 46.7899 124.343 47.1656C124.723 47.5413 125.238 47.7493 125.772 47.7432L125.749 45.7434ZM125.749 45.7426H127.749C127.749 44.638 126.854 43.7426 125.749 43.7426V45.7426ZM122.628 45.7426L120.646 45.4724C120.568 46.0446 120.741 46.6227 121.121 47.0578C121.501 47.4929 122.05 47.7426 122.628 47.7426V45.7426ZM85.9204 46.0558L85.4677 48.004C86.1143 48.1542 86.7933 47.9738 87.28 47.5226C87.7668 47.0713 87.998 46.4079 87.8971 45.7518L85.9204 46.0558ZM83.3158 69.9095L84.8871 71.147C85.3636 70.5419 85.4503 69.717 85.1101 69.026C84.7698 68.335 84.0631 67.9009 83.2929 67.9097L83.3158 69.9095ZM83.3152 69.9104L81.744 68.6729C81.27 69.2747 81.1814 70.0944 81.5159 70.7836C81.8504 71.4728 82.5491 71.9104 83.3152 71.9104V69.9104ZM125.749 69.9104V71.9104C126.854 71.9104 127.749 71.0149 127.749 69.9104H125.749ZM125.727 71.9094C125.781 71.91 125.835 71.9104 125.89 71.9104V67.9104C125.851 67.9104 125.811 67.9101 125.772 67.9097L125.727 71.9094ZM125.89 71.9104C133.668 71.9104 139.974 65.6048 139.974 57.8265H135.974C135.974 63.3956 131.459 67.9104 125.89 67.9104V71.9104ZM139.974 57.8265C139.974 50.0481 133.668 43.7426 125.89 43.7426V47.7426C131.459 47.7426 135.974 52.2573 135.974 57.8265H139.974ZM125.89 43.7426C125.835 43.7426 125.781 43.7429 125.727 43.7435L125.772 47.7432C125.811 47.7428 125.851 47.7426 125.89 47.7426V43.7426ZM123.749 45.7426V45.7434H127.749V45.7426H123.749ZM122.628 47.7426H125.749V43.7426H122.628V47.7426ZM124.609 46.0128C124.734 45.0965 124.799 44.1619 124.799 43.2134H120.799C120.799 43.9807 120.747 44.7347 120.646 45.4724L124.609 46.0128ZM124.799 43.2134C124.799 31.8654 115.599 22.666 104.251 22.666V26.666C113.39 26.666 120.799 34.0745 120.799 43.2134H124.799ZM104.251 22.666C92.9033 22.666 83.7039 31.8654 83.7039 43.2134H87.7039C87.7039 34.0745 95.1124 26.666 104.251 26.666V22.666ZM83.7039 43.2134C83.7039 44.2821 83.7857 45.333 83.9436 46.3599L87.8971 45.7518C87.77 44.9254 87.7039 44.0778 87.7039 43.2134H83.7039ZM86.373 44.1077C85.3435 43.8686 84.2726 43.7426 83.1747 43.7426V47.7426C83.9657 47.7426 84.733 47.8332 85.4677 48.004L86.373 44.1077ZM83.1747 43.7426C75.3964 43.7426 69.0908 50.0481 69.0908 57.8265H73.0908C73.0908 52.2573 77.6055 47.7426 83.1747 47.7426V43.7426ZM69.0908 57.8265C69.0908 65.6048 75.3964 71.9104 83.1747 71.9104V67.9104C77.6055 67.9104 73.0908 63.3956 73.0908 57.8265H69.0908ZM83.1747 71.9104C83.2295 71.9104 83.2842 71.91 83.3387 71.9094L83.2929 67.9097C83.2536 67.9101 83.2142 67.9104 83.1747 67.9104V71.9104ZM84.8864 71.1478L84.8871 71.147L81.7446 68.6721L81.744 68.6729L84.8864 71.1478ZM125.749 67.9104H83.3152V71.9104H125.749V67.9104ZM123.749 69.9095V69.9104H127.749V69.9095H123.749Z" fill="url(#paint1_linear_12_507)" mask="url(#path-1-inside-1_12_507)"/>
</g>
<g filter="url(#filter1_bd_12_507)">
<mask id="path-3-inside-2_12_507" fill="white">
<path fill-rule="evenodd" clip-rule="evenodd" d="M162.277 100.88C162.342 100.881 162.407 100.882 162.472 100.882C171.706 100.882 179.192 93.3954 179.192 84.1608C179.192 74.9262 171.706 67.4401 162.472 67.4401C162.407 67.4401 162.342 67.4404 162.277 67.4412V67.4401H157.958C158.114 66.2957 158.194 65.1274 158.194 63.9403C158.194 49.7662 146.704 38.2759 132.53 38.2759C118.356 38.2759 106.865 49.7662 106.865 63.9403C106.865 65.2777 106.968 66.5913 107.165 67.8736C105.944 67.59 104.672 67.4401 103.366 67.4401C94.131 67.4401 86.6449 74.9262 86.6449 84.1608C86.6449 93.3954 94.131 100.882 103.366 100.882C103.431 100.882 103.496 100.881 103.561 100.88L103.56 100.882H162.277V100.88Z"/>
</mask>
<path fill-rule="evenodd" clip-rule="evenodd" d="M162.277 100.88C162.342 100.881 162.407 100.882 162.472 100.882C171.706 100.882 179.192 93.3954 179.192 84.1608C179.192 74.9262 171.706 67.4401 162.472 67.4401C162.407 67.4401 162.342 67.4404 162.277 67.4412V67.4401H157.958C158.114 66.2957 158.194 65.1274 158.194 63.9403C158.194 49.7662 146.704 38.2759 132.53 38.2759C118.356 38.2759 106.865 49.7662 106.865 63.9403C106.865 65.2777 106.968 66.5913 107.165 67.8736C105.944 67.59 104.672 67.4401 103.366 67.4401C94.131 67.4401 86.6449 74.9262 86.6449 84.1608C86.6449 93.3954 94.131 100.882 103.366 100.882C103.431 100.882 103.496 100.881 103.561 100.88L103.56 100.882H162.277V100.88Z" fill="url(#paint2_linear_12_507)" shape-rendering="crispEdges"/>
<path d="M162.277 100.88L162.3 98.8806C161.765 98.8745 161.251 99.0825 160.871 99.4582C160.491 99.8339 160.277 100.346 160.277 100.88H162.277ZM162.277 67.4412H160.277C160.277 67.9755 160.491 68.4877 160.871 68.8634C161.251 69.2391 161.766 69.4471 162.3 69.441L162.277 67.4412ZM162.277 67.4401H164.277C164.277 66.3355 163.382 65.4401 162.277 65.4401V67.4401ZM157.958 67.4401L155.976 67.1698C155.898 67.7421 156.071 68.3202 156.451 68.7553C156.831 69.1904 157.38 69.4401 157.958 69.4401V67.4401ZM107.165 67.8736L106.712 69.8217C107.359 69.9719 108.038 69.7915 108.525 69.3403C109.011 68.889 109.243 68.2256 109.142 67.5695L107.165 67.8736ZM103.561 100.88L105.132 102.119C105.608 101.514 105.696 100.689 105.355 99.9974C105.015 99.3061 104.308 98.8717 103.538 98.8806L103.561 100.88ZM103.56 100.882L101.989 99.6433C101.515 100.245 101.426 101.065 101.761 101.754C102.095 102.444 102.794 102.882 103.56 102.882V100.882ZM162.277 100.882V102.882C163.382 102.882 164.277 101.986 164.277 100.882H162.277ZM162.254 102.88C162.327 102.881 162.399 102.882 162.472 102.882V98.8815C162.414 98.8815 162.357 98.8812 162.3 98.8806L162.254 102.88ZM162.472 102.882C172.811 102.882 181.192 94.5 181.192 84.1608H177.192C177.192 92.2908 170.602 98.8815 162.472 98.8815V102.882ZM181.192 84.1608C181.192 73.8216 172.811 65.4401 162.472 65.4401V69.4401C170.602 69.4401 177.192 76.0308 177.192 84.1608H181.192ZM162.472 65.4401C162.399 65.4401 162.327 65.4405 162.254 65.4413L162.3 69.441C162.357 69.4404 162.414 69.4401 162.472 69.4401V65.4401ZM160.277 67.4401V67.4412H164.277V67.4401H160.277ZM157.958 69.4401H162.277V65.4401H157.958V69.4401ZM159.939 67.7103C160.107 66.4767 160.194 65.2181 160.194 63.9403H156.194C156.194 65.0368 156.12 66.1148 155.976 67.1698L159.939 67.7103ZM160.194 63.9403C160.194 48.6617 147.808 36.2759 132.53 36.2759V40.2759C145.599 40.2759 156.194 50.8708 156.194 63.9403H160.194ZM132.53 36.2759C117.251 36.2759 104.865 48.6617 104.865 63.9403H108.865C108.865 50.8708 119.46 40.2759 132.53 40.2759V36.2759ZM104.865 63.9403C104.865 65.3799 104.975 66.7951 105.188 68.1776L109.142 67.5695C108.96 66.3875 108.865 65.1756 108.865 63.9403H104.865ZM107.618 65.9255C106.25 65.6076 104.826 65.4401 103.366 65.4401V69.4401C104.519 69.4401 105.639 69.5723 106.712 69.8217L107.618 65.9255ZM103.366 65.4401C93.0265 65.4401 84.6449 73.8216 84.6449 84.1608H88.6449C88.6449 76.0308 95.2356 69.4401 103.366 69.4401V65.4401ZM84.6449 84.1608C84.6449 94.5 93.0265 102.882 103.366 102.882V98.8815C95.2356 98.8815 88.6449 92.2908 88.6449 84.1608H84.6449ZM103.366 102.882C103.438 102.882 103.511 102.881 103.584 102.88L103.538 98.8806C103.481 98.8812 103.423 98.8815 103.366 98.8815V102.882ZM105.131 102.12L105.132 102.119L101.99 99.6422L101.989 99.6433L105.131 102.12ZM162.277 98.8815H103.56V102.882H162.277V98.8815ZM160.277 100.88V100.882H164.277V100.88H160.277Z" fill="url(#paint3_linear_12_507)" mask="url(#path-3-inside-2_12_507)"/>
</g>
<g filter="url(#filter2_bd_12_507)">
<mask id="path-5-inside-3_12_507" fill="white">
<path fill-rule="evenodd" clip-rule="evenodd" d="M192.632 83.5195C192.679 83.5201 192.726 83.5203 192.773 83.5203C199.447 83.5203 204.857 78.1102 204.857 71.4364C204.857 64.7627 199.447 59.3525 192.773 59.3525C192.726 59.3525 192.679 59.3528 192.632 59.3533V59.3525H189.511C189.623 58.5255 189.682 57.6812 189.682 56.8233C189.682 46.5798 181.378 38.2759 171.134 38.2759C160.891 38.2759 152.587 46.5798 152.587 56.8233C152.587 57.7898 152.661 58.7391 152.803 59.6658C151.921 59.4609 151.002 59.3525 150.058 59.3525C143.384 59.3525 137.974 64.7627 137.974 71.4364C137.974 78.1102 143.384 83.5203 150.058 83.5203C150.105 83.5203 150.152 83.5201 150.199 83.5195L150.198 83.5203H192.632V83.5195Z"/>
</mask>
<path fill-rule="evenodd" clip-rule="evenodd" d="M192.632 83.5195C192.679 83.5201 192.726 83.5203 192.773 83.5203C199.447 83.5203 204.857 78.1102 204.857 71.4364C204.857 64.7627 199.447 59.3525 192.773 59.3525C192.726 59.3525 192.679 59.3528 192.632 59.3533V59.3525H189.511C189.623 58.5255 189.682 57.6812 189.682 56.8233C189.682 46.5798 181.378 38.2759 171.134 38.2759C160.891 38.2759 152.587 46.5798 152.587 56.8233C152.587 57.7898 152.661 58.7391 152.803 59.6658C151.921 59.4609 151.002 59.3525 150.058 59.3525C143.384 59.3525 137.974 64.7627 137.974 71.4364C137.974 78.1102 143.384 83.5203 150.058 83.5203C150.105 83.5203 150.152 83.5201 150.199 83.5195L150.198 83.5203H192.632V83.5195Z" fill="url(#paint4_linear_12_507)" shape-rendering="crispEdges"/>
<path d="M192.632 83.5195L192.655 81.5196C192.121 81.5135 191.606 81.7215 191.226 82.0972C190.846 82.4729 190.632 82.9851 190.632 83.5195H192.632ZM192.632 59.3533H190.632C190.632 59.8877 190.846 60.3998 191.226 60.7756C191.606 61.1513 192.121 61.3593 192.655 61.3532L192.632 59.3533ZM192.632 59.3525H194.632C194.632 58.2479 193.737 57.3525 192.632 57.3525V59.3525ZM189.511 59.3525L187.529 59.0823C187.451 59.6546 187.624 60.2326 188.004 60.6677C188.384 61.1028 188.933 61.3525 189.511 61.3525V59.3525ZM152.803 59.6658L152.351 61.6139C152.997 61.7641 153.676 61.5838 154.163 61.1325C154.65 60.6812 154.881 60.0178 154.78 59.3618L152.803 59.6658ZM150.199 83.5195L151.77 84.7569C152.247 84.1519 152.333 83.3269 151.993 82.636C151.653 81.945 150.946 81.5108 150.176 81.5196L150.199 83.5195ZM150.198 83.5203L148.627 82.2829C148.153 82.8847 148.064 83.7044 148.399 84.3936C148.733 85.0827 149.432 85.5203 150.198 85.5203V83.5203ZM192.632 83.5203V85.5203C193.737 85.5203 194.632 84.6249 194.632 83.5203H192.632ZM192.61 85.5194C192.664 85.52 192.718 85.5203 192.773 85.5203V81.5203C192.733 81.5203 192.694 81.5201 192.655 81.5196L192.61 85.5194ZM192.773 85.5203C200.551 85.5203 206.857 79.2147 206.857 71.4364H202.857C202.857 77.0056 198.342 81.5203 192.773 81.5203V85.5203ZM206.857 71.4364C206.857 63.6581 200.551 57.3525 192.773 57.3525V61.3525C198.342 61.3525 202.857 65.8672 202.857 71.4364H206.857ZM192.773 57.3525C192.718 57.3525 192.664 57.3528 192.61 57.3534L192.655 61.3532C192.694 61.3527 192.734 61.3525 192.773 61.3525V57.3525ZM190.632 59.3525V59.3533H194.632V59.3525H190.632ZM189.511 61.3525H192.632V57.3525H189.511V61.3525ZM191.492 59.6227C191.617 58.7064 191.682 57.7718 191.682 56.8233H187.682C187.682 57.5906 187.63 58.3446 187.529 59.0823L191.492 59.6227ZM191.682 56.8233C191.682 45.4753 182.482 36.2759 171.134 36.2759V40.2759C180.273 40.2759 187.682 47.6844 187.682 56.8233H191.682ZM171.134 36.2759C159.786 36.2759 150.587 45.4753 150.587 56.8233H154.587C154.587 47.6844 161.995 40.2759 171.134 40.2759V36.2759ZM150.587 56.8233C150.587 57.892 150.669 58.9429 150.827 59.9698L154.78 59.3618C154.653 58.5353 154.587 57.6877 154.587 56.8233H150.587ZM153.256 57.7177C152.226 57.4785 151.156 57.3525 150.058 57.3525V61.3525C150.849 61.3525 151.616 61.4432 152.351 61.6139L153.256 57.7177ZM150.058 57.3525C142.279 57.3525 135.974 63.6581 135.974 71.4364H139.974C139.974 65.8672 144.488 61.3525 150.058 61.3525V57.3525ZM135.974 71.4364C135.974 79.2147 142.279 85.5203 150.058 85.5203V81.5203C144.488 81.5203 139.974 77.0056 139.974 71.4364H135.974ZM150.058 85.5203C150.112 85.5203 150.167 85.52 150.222 85.5194L150.176 81.5196C150.137 81.5201 150.097 81.5203 150.058 81.5203V85.5203ZM151.769 84.7577L151.77 84.7569L148.628 82.2821L148.627 82.2829L151.769 84.7577ZM192.632 81.5203H150.198V85.5203H192.632V81.5203ZM190.632 83.5195V83.5203H194.632V83.5195H190.632Z" fill="url(#paint5_linear_12_507)" mask="url(#path-5-inside-3_12_507)"/>
</g>
<defs>
<filter id="filter0_bd_12_507" x="0.0908203" y="-10.334" width="166.883" height="145.244" filterUnits="userSpaceOnUse" color-interpolation-filters="sRGB">
<feFlood flood-opacity="0" result="BackgroundImageFix"/>
<feGaussianBlur in="BackgroundImage" stdDeviation="7"/>
<feComposite in2="SourceAlpha" operator="in" result="effect1_backgroundBlur_12_507"/>
<feColorMatrix in="SourceAlpha" type="matrix" values="0 0 0 0 0 0 0 0 0 0 0 0 0 0 0 0 0 0 127 0" result="hardAlpha"/>
<feOffset dx="-21" dy="15"/>
<feGaussianBlur stdDeviation="25"/>
<feComposite in2="hardAlpha" operator="out"/>
<feColorMatrix type="matrix" values="0 0 0 0 0.113438 0 0 0 0 0.148981 0 0 0 0 0.275 0 0 0 0.25 0"/>
<feBlend mode="normal" in2="effect1_backgroundBlur_12_507" result="effect2_dropShadow_12_507"/>
<feBlend mode="normal" in="SourceGraphic" in2="effect2_dropShadow_12_507" result="shape"/>
</filter>
<filter id="filter1_bd_12_507" x="15.6449" y="3.27588" width="192.547" height="162.605" filterUnits="userSpaceOnUse" color-interpolation-filters="sRGB">
<feFlood flood-opacity="0" result="BackgroundImageFix"/>
<feGaussianBlur in="BackgroundImage" stdDeviation="7"/>
<feComposite in2="SourceAlpha" operator="in" result="effect1_backgroundBlur_12_507"/>
<feColorMatrix in="SourceAlpha" type="matrix" values="0 0 0 0 0 0 0 0 0 0 0 0 0 0 0 0 0 0 127 0" result="hardAlpha"/>
<feOffset dx="-21" dy="15"/>
<feGaussianBlur stdDeviation="25"/>
<feComposite in2="hardAlpha" operator="out"/>
<feColorMatrix type="matrix" values="0 0 0 0 0.113725 0 0 0 0 0.14902 0 0 0 0 0.27451 0 0 0 0.25 0"/>
<feBlend mode="normal" in2="effect1_backgroundBlur_12_507" result="effect2_dropShadow_12_507"/>
<feBlend mode="normal" in="SourceGraphic" in2="effect2_dropShadow_12_507" result="shape"/>
</filter>
<filter id="filter2_bd_12_507" x="66.9738" y="3.27588" width="166.883" height="145.245" filterUnits="userSpaceOnUse" color-interpolation-filters="sRGB">
<feFlood flood-opacity="0" result="BackgroundImageFix"/>
<feGaussianBlur in="BackgroundImage" stdDeviation="7"/>
<feComposite in2="SourceAlpha" operator="in" result="effect1_backgroundBlur_12_507"/>
<feColorMatrix in="SourceAlpha" type="matrix" values="0 0 0 0 0 0 0 0 0 0 0 0 0 0 0 0 0 0 127 0" result="hardAlpha"/>
<feOffset dx="-21" dy="15"/>
<feGaussianBlur stdDeviation="25"/>
<feComposite in2="hardAlpha" operator="out"/>
<feColorMatrix type="matrix" values="0 0 0 0 0.113438 0 0 0 0 0.148981 0 0 0 0 0.275 0 0 0 0.25 0"/>
<feBlend mode="normal" in2="effect1_backgroundBlur_12_507" result="effect2_dropShadow_12_507"/>
<feBlend mode="normal" in="SourceGraphic" in2="effect2_dropShadow_12_507" result="shape"/>
</filter>
<linearGradient id="paint0_linear_12_507" x1="107.643" y1="26.027" x2="107.643" y2="75.0227" gradientUnits="userSpaceOnUse">
<stop stop-color="white"/>
<stop offset="1" stop-color="white" stop-opacity="0"/>
</linearGradient>
<linearGradient id="paint1_linear_12_507" x1="104.532" y1="24.666" x2="104.532" y2="69.9104" gradientUnits="userSpaceOnUse">
<stop stop-color="white"/>
<stop offset="1" stop-color="white" stop-opacity="0"/>
</linearGradient>
<linearGradient id="paint2_linear_12_507" x1="132.919" y1="18.2499" x2="132.919" y2="109.631" gradientUnits="userSpaceOnUse">
<stop stop-color="white"/>
<stop offset="1" stop-color="white" stop-opacity="0"/>
</linearGradient>
<linearGradient id="paint3_linear_12_507" x1="132.919" y1="38.2759" x2="132.919" y2="100.881" gradientUnits="userSpaceOnUse">
<stop stop-color="white"/>
<stop offset="1" stop-color="white" stop-opacity="0"/>
</linearGradient>
<linearGradient id="paint4_linear_12_507" x1="174.526" y1="39.6369" x2="174.526" y2="88.6325" gradientUnits="userSpaceOnUse">
<stop stop-color="white"/>
<stop offset="1" stop-color="white" stop-opacity="0"/>
</linearGradient>
<linearGradient id="paint5_linear_12_507" x1="171.415" y1="38.2759" x2="171.415" y2="83.5202" gradientUnits="userSpaceOnUse">
<stop stop-color="white"/>
<stop offset="1" stop-color="white" stop-opacity="0"/>
</linearGradient>
</defs>
</svg>