<svg xmlns="http://www.w3.org/2000/svg" fill="none" viewBox="21.88 14.9 122.21 85.6">
<g filter="url(#filter0_d_12_334)">
<circle cx="91.1555" cy="37.8433" r="21.9424" fill="url(#paint0_linear_12_334)" stroke="url(#paint1_linear_12_334)" stroke-width="2"/>
<g filter="url(#filter1_bd_12_334)">
<mask id="path-2-inside-1_12_334" fill="white">
<path fill-rule="evenodd" clip-rule="evenodd" d="M99.516 98.5039C99.5808 98.5047 99.6456 98.5051 99.7105 98.5051C108.945 98.5051 116.431 91.0189 116.431 81.7843C116.431 72.5497 108.945 65.0636 99.7105 65.0636C99.6456 65.0636 99.5808 65.0639 99.516 65.0647V65.0636H95.1963C95.3524 63.9193 95.433 62.7509 95.433 61.5638C95.433 47.3898 83.9426 35.8994 69.7686 35.8994C55.5945 35.8994 44.1042 47.3898 44.1042 61.5638C44.1042 62.9013 44.2065 64.2148 44.4037 65.4971C43.1832 65.2135 41.9114 65.0636 40.6045 65.0636C31.3699 65.0636 23.8838 72.5497 23.8838 81.7843C23.8838 91.0189 31.3699 98.5051 40.6045 98.5051C40.6697 98.5051 40.7349 98.5047 40.7999 98.5039L40.799 98.5051H99.516V98.5039Z"/>
</mask>
<path fill-rule="evenodd" clip-rule="evenodd" d="M99.516 98.5039C99.5808 98.5047 99.6456 98.5051 99.7105 98.5051C108.945 98.5051 116.431 91.0189 116.431 81.7843C116.431 72.5497 108.945 65.0636 99.7105 65.0636C99.6456 65.0636 99.5808 65.0639 99.516 65.0647V65.0636H95.1963C95.3524 63.9193 95.433 62.7509 95.433 61.5638C95.433 47.3898 83.9426 35.8994 69.7686 35.8994C55.5945 35.8994 44.1042 47.3898 44.1042 61.5638C44.1042 62.9013 44.2065 64.2148 44.4037 65.4971C43.1832 65.2135 41.9114 65.0636 40.6045 65.0636C31.3699 65.0636 23.8838 72.5497 23.8838 81.7843C23.8838 91.0189 31.3699 98.5051 40.6045 98.5051C40.6697 98.5051 40.7349 98.5047 40.7999 98.5039L40.799 98.5051H99.516V98.5039Z" fill="url(#paint2_linear_12_334)" shape-rendering="crispEdges"/>
<path d="M99.516 98.5039L99.5388 96.5041C99.0044 96.498 98.4899 96.706 98.1099 97.0817C97.7299 97.4574 97.516 97.9696 97.516 98.5039H99.516ZM99.516 65.0647H97.516C97.516 65.5991 97.7299 66.1112 98.1099 66.4869C98.4899 66.8626 99.0045 67.0706 99.5388 67.0645L99.516 65.0647ZM99.516 65.0636H101.516C101.516 63.959 100.621 63.0636 99.516 63.0636V65.0636ZM95.1963 65.0636L93.2147 64.7934C93.1366 65.3656 93.3098 65.9437 93.6896 66.3788C94.0694 66.8139 94.6188 67.0636 95.1963 67.0636V65.0636ZM44.4037 65.4971L43.9511 67.4452C44.5976 67.5954 45.2766 67.415 45.7634 66.9638C46.2502 66.5125 46.4813 65.8491 46.3804 65.193L44.4037 65.4971ZM40.7999 98.5039L42.3705 99.7422C42.8474 99.1372 42.9345 98.3121 42.5944 97.6209C42.2542 96.9297 41.5473 96.4953 40.777 96.5041L40.7999 98.5039ZM40.799 98.5051L39.2284 97.2668C38.754 97.8685 38.6651 98.6884 38.9995 99.3778C39.3339 100.067 40.0328 100.505 40.799 100.505V98.5051ZM99.516 98.5051V100.505C100.621 100.505 101.516 99.6096 101.516 98.5051H99.516ZM99.4933 100.504C99.5656 100.505 99.638 100.505 99.7105 100.505V96.5051C99.6532 96.5051 99.5959 96.5047 99.5388 96.5041L99.4933 100.504ZM99.7105 100.505C110.05 100.505 118.431 92.1235 118.431 81.7843H114.431C114.431 89.9144 107.841 96.5051 99.7105 96.5051V100.505ZM118.431 81.7843C118.431 71.4451 110.05 63.0636 99.7105 63.0636V67.0636C107.841 67.0636 114.431 73.6543 114.431 81.7843H118.431ZM99.7105 63.0636C99.638 63.0636 99.5656 63.064 99.4932 63.0648L99.5388 67.0645C99.596 67.0639 99.6532 67.0636 99.7105 67.0636V63.0636ZM97.516 65.0636V65.0647H101.516V65.0636H97.516ZM95.1963 67.0636H99.516V63.0636H95.1963V67.0636ZM97.178 65.3338C97.3462 64.1002 97.433 62.8416 97.433 61.5638H93.433C93.433 62.6603 93.3585 63.7383 93.2147 64.7934L97.178 65.3338ZM97.433 61.5638C97.433 46.2852 85.0472 33.8994 69.7686 33.8994V37.8994C82.8381 37.8994 93.433 48.4943 93.433 61.5638H97.433ZM69.7686 33.8994C54.4899 33.8994 42.1042 46.2852 42.1042 61.5638H46.1042C46.1042 48.4943 56.6991 37.8994 69.7686 37.8994V33.8994ZM42.1042 61.5638C42.1042 63.0034 42.2143 64.4186 42.4269 65.8011L46.3804 65.193C46.1987 64.011 46.1042 62.7991 46.1042 61.5638H42.1042ZM44.8563 63.549C43.4884 63.2311 42.0648 63.0636 40.6045 63.0636V67.0636C41.7579 67.0636 42.8779 67.1958 43.9511 67.4452L44.8563 63.549ZM40.6045 63.0636C30.2654 63.0636 21.8838 71.4451 21.8838 81.7843H25.8838C25.8838 73.6543 32.4745 67.0636 40.6045 67.0636V63.0636ZM21.8838 81.7843C21.8838 92.1235 30.2654 100.505 40.6045 100.505V96.5051C32.4745 96.5051 25.8838 89.9144 25.8838 81.7843H21.8838ZM40.6045 100.505C40.6774 100.505 40.7501 100.505 40.8228 100.504L40.777 96.5041C40.7196 96.5047 40.6621 96.5051 40.6045 96.5051V100.505ZM42.3696 99.7433L42.3705 99.7422L39.2293 97.2657L39.2284 97.2668L42.3696 99.7433ZM99.516 96.5051H40.799V100.505H99.516V96.5051ZM97.516 98.5039V98.5051H101.516V98.5039H97.516Z" fill="url(#paint3_linear_12_334)" mask="url(#path-2-inside-1_12_334)"/>
</g>
<g filter="url(#filter2_bd_12_334)">
<mask id="path-4-inside-2_12_334" fill="white">
<path fill-rule="evenodd" clip-rule="evenodd" d="M129.871 81.143C129.918 81.1435 129.965 81.1438 130.012 81.1438C136.685 81.1438 142.096 75.7337 142.096 69.0599C142.096 62.3861 136.685 56.976 130.012 56.976C129.965 56.976 129.918 56.9763 129.871 56.9768V56.976H126.75C126.862 56.149 126.921 55.3047 126.921 54.4468C126.921 44.2034 118.617 35.8994 108.373 35.8994C98.1297 35.8994 89.8258 44.2034 89.8258 54.4468C89.8258 55.4133 89.8997 56.3626 90.0422 57.2893C89.1601 57.0844 88.241 56.976 87.2965 56.976C80.6228 56.976 75.2126 62.3861 75.2126 69.0599C75.2126 75.7337 80.6228 81.1438 87.2965 81.1438C87.3437 81.1438 87.3907 81.1435 87.4378 81.143L87.4371 81.1438H129.871V81.143Z"/>
</mask>
<path fill-rule="evenodd" clip-rule="evenodd" d="M129.871 81.143C129.918 81.1435 129.965 81.1438 130.012 81.1438C136.685 81.1438 142.096 75.7337 142.096 69.0599C142.096 62.3861 136.685 56.976 130.012 56.976C129.965 56.976 129.918 56.9763 129.871 56.9768V56.976H126.75C126.862 56.149 126.921 55.3047 126.921 54.4468C126.921 44.2034 118.617 35.8994 108.373 35.8994C98.1297 35.8994 89.8258 44.2034 89.8258 54.4468C89.8258 55.4133 89.8997 56.3626 90.0422 57.2893C89.1601 57.0844 88.241 56.976 87.2965 56.976C80.6228 56.976 75.2126 62.3861 75.2126 69.0599C75.2126 75.7337 80.6228 81.1438 87.2965 81.1438C87.3437 81.1438 87.3907 81.1435 87.4378 81.143L87.4371 81.1438H129.871V81.143Z" fill="url(#paint4_linear_12_334)" shape-rendering="crispEdges"/>
<path d="M129.871 81.143L129.894 79.1431C129.36 79.137 128.845 79.345 128.465 79.7207C128.085 80.0964 127.871 80.6086 127.871 81.143H129.871ZM129.871 56.9768H127.871C127.871 57.5112 128.085 58.0233 128.465 58.399C128.845 58.7747 129.36 58.9827 129.894 58.9766L129.871 56.9768ZM129.871 56.976H131.871C131.871 55.8714 130.976 54.976 129.871 54.976V56.976ZM126.75 56.976L124.768 56.7058C124.69 57.278 124.863 57.8561 125.243 58.2912C125.623 58.7263 126.172 58.976 126.75 58.976V56.976ZM90.0422 57.2893L89.5896 59.2374C90.2361 59.3876 90.9151 59.2073 91.4019 58.756C91.8887 58.3047 92.1199 57.6413 92.019 56.9853L90.0422 57.2893ZM87.4377 81.143L89.009 82.3804C89.4855 81.7753 89.5722 80.9504 89.232 80.2594C88.8918 79.5685 88.185 79.1343 87.4149 79.1431L87.4377 81.143ZM87.4371 81.1438L85.8659 79.9063C85.3919 80.5082 85.3033 81.3278 85.6378 82.017C85.9723 82.7062 86.671 83.1438 87.4371 83.1438V81.1438ZM129.871 81.1438V83.1438C130.976 83.1438 131.871 82.2483 131.871 81.1438H129.871ZM129.848 83.1428C129.903 83.1435 129.957 83.1438 130.012 83.1438V79.1438C129.972 79.1438 129.933 79.1435 129.894 79.1431L129.848 83.1428ZM130.012 83.1438C137.79 83.1438 144.096 76.8382 144.096 69.0599H140.096C140.096 74.6291 135.581 79.1438 130.012 79.1438V83.1438ZM144.096 69.0599C144.096 61.2816 137.79 54.976 130.012 54.976V58.976C135.581 58.976 140.096 63.4907 140.096 69.0599H144.096ZM130.012 54.976C129.957 54.976 129.903 54.9763 129.848 54.9769L129.894 58.9766C129.933 58.9762 129.972 58.976 130.012 58.976V54.976ZM127.871 56.976V56.9768H131.871V56.976H127.871ZM126.75 58.976H129.871V54.976H126.75V58.976ZM128.731 57.2462C128.856 56.3299 128.921 55.3953 128.921 54.4468H124.921C124.921 55.2141 124.868 55.9681 124.768 56.7058L128.731 57.2462ZM128.921 54.4468C128.921 43.0988 119.721 33.8994 108.373 33.8994V37.8994C117.512 37.8994 124.921 45.3079 124.921 54.4468H128.921ZM108.373 33.8994C97.0251 33.8994 87.8258 43.0988 87.8258 54.4468H91.8258C91.8258 45.3079 99.2343 37.8994 108.373 37.8994V33.8994ZM87.8258 54.4468C87.8258 55.5155 87.9075 56.5664 88.0655 57.5933L92.019 56.9853C91.8919 56.1588 91.8258 55.3112 91.8258 54.4468H87.8258ZM90.4949 55.3412C89.4654 55.102 88.3944 54.976 87.2965 54.976V58.976C88.0875 58.976 88.8549 59.0667 89.5896 59.2374L90.4949 55.3412ZM87.2965 54.976C79.5182 54.976 73.2126 61.2816 73.2126 69.0599H77.2126C77.2126 63.4907 81.7273 58.976 87.2965 58.976V54.976ZM73.2126 69.0599C73.2126 76.8382 79.5182 83.1438 87.2965 83.1438V79.1438C81.7273 79.1438 77.2126 74.6291 77.2126 69.0599H73.2126ZM87.2965 83.1438C87.3513 83.1438 87.406 83.1435 87.4606 83.1428L87.4149 79.1431C87.3754 79.1435 87.336 79.1438 87.2965 79.1438V83.1438ZM89.0083 82.3812L89.009 82.3804L85.8665 79.9055L85.8659 79.9063L89.0083 82.3812ZM129.871 79.1438H87.4371V83.1438H129.871V79.1438ZM127.871 81.143V81.1438H131.871V81.143H127.871Z" fill="url(#paint5_linear_12_334)" mask="url(#path-4-inside-2_12_334)"/>
</g>
</g>
<defs>
<filter id="filter0_d_12_334" x="19.8838" y="13.3457" width="126.212" height="93.1592" filterUnits="userSpaceOnUse" color-interpolation-filters="sRGB">
<feFlood flood-opacity="0" result="BackgroundImageFix"/>
<feColorMatrix in="SourceAlpha" type="matrix" values="0 0 0 0 0 0 0 0 0 0 0 0 0 0 0 0 0 0 127 0" result="hardAlpha"/>
<feOffset dy="4"/>
<feGaussianBlur stdDeviation="2"/>
<feComposite in2="hardAlpha" operator="out"/>
<feColorMatrix type="matrix" values="0 0 0 0 0 0 0 0 0 0 0 0 0 0 0 0 0 0 0.25 0"/>
<feBlend mode="normal" in2="BackgroundImageFix" result="effect1_dropShadow_12_334"/>
<feBlend mode="normal" in="SourceGraphic" in2="effect1_dropShadow_12_334" result="shape"/>
</filter>
<filter id="filter1_bd_12_334" x="-47.1162" y="0.899414" width="192.547" height="162.605" filterUnits="userSpaceOnUse" color-interpolation-filters="sRGB">
<feFlood flood-opacity="0" result="BackgroundImageFix"/>
<feGaussianBlur in="BackgroundImage" stdDeviation="7"/>
<feComposite in2="SourceAlpha" operator="in" result="effect1_backgroundBlur_12_334"/>
<feColorMatrix in="SourceAlpha" type="matrix" values="0 0 0 0 0 0 0 0 0 0 0 0 0 0 0 0 0 0 127 0" result="hardAlpha"/>
<feOffset dx="-21" dy="15"/>
<feGaussianBlur stdDeviation="25"/>
<feComposite in2="hardAlpha" operator="out"/>
<feColorMatrix type="matrix" values="0 0 0 0 0.113725 0 0 0 0 0.14902 0 0 0 0 0.27451 0 0 0 0.25 0"/>
<feBlend mode="normal" in2="effect1_backgroundBlur_12_334" result="effect2_dropShadow_12_334"/>
<feBlend mode="normal" in="SourceGraphic" in2="effect2_dropShadow_12_334" result="shape"/>
</filter>
<filter id="filter2_bd_12_334" x="4.21265" y="0.899414" width="166.883" height="145.245" filterUnits="userSpaceOnUse" color-interpolation-filters="sRGB">
<feFlood flood-opacity="0" result="BackgroundImageFix"/>
<feGaussianBlur in="BackgroundImage" stdDeviation="7"/>
<feComposite in2="SourceAlpha" operator="in" result="effect1_backgroundBlur_12_334"/>
<feColorMatrix in="SourceAlpha" type="matrix" values="0 0 0 0 0 0 0 0 0 0 0 0 0 0 0 0 0 0 127 0" result="hardAlpha"/>
<feOffset dx="-21" dy="15"/>
<feGaussianBlur stdDeviation="25"/>
<feComposite in2="hardAlpha" operator="out"/>
<feColorMatrix type="matrix" values="0 0 0 0 0.113438 0 0 0 0 0.148981 0 0 0 0 0.275 0 0 0 0.25 0"/>
<feBlend mode="normal" in2="effect1_backgroundBlur_12_334" result="effect2_dropShadow_12_334"/>
<feBlend mode="normal" in="SourceGraphic" in2="effect2_dropShadow_12_334" result="shape"/>
</filter>
<linearGradient id="paint0_linear_12_334" x1="91.1555" y1="14.9009" x2="91.1555" y2="60.7857" gradientUnits="userSpaceOnUse">
<stop stop-color="#FFE600"/>
<stop offset="1" stop-color="#FF7A00"/>
</linearGradient>
<linearGradient id="paint1_linear_12_334" x1="91.1555" y1="14.9009" x2="91.1555" y2="60.7857" gradientUnits="userSpaceOnUse">
<stop stop-color="white"/>
<stop offset="1" stop-color="white" stop-opacity="0"/>
</linearGradient>
<linearGradient id="paint2_linear_12_334" x1="70.1575" y1="15.8734" x2="70.1575" y2="107.254" gradientUnits="userSpaceOnUse">
<stop stop-color="white"/>
<stop offset="1" stop-color="white" stop-opacity="0"/>
</linearGradient>
<linearGradient id="paint3_linear_12_334" x1="70.1575" y1="35.8994" x2="70.1575" y2="98.5051" gradientUnits="userSpaceOnUse">
<stop stop-color="white"/>
<stop offset="1" stop-color="white" stop-opacity="0"/>
</linearGradient>
<linearGradient id="paint4_linear_12_334" x1="111.765" y1="37.2604" x2="111.765" y2="86.2561" gradientUnits="userSpaceOnUse">
<stop stop-color="white"/>
<stop offset="1" stop-color="white" stop-opacity="0"/>
</linearGradient>
<linearGradient id="paint5_linear_12_334" x1="108.654" y1="35.8994" x2="108.654" y2="81.1438" gradientUnits="userSpaceOnUse">
<stop stop-color="white"/>
<stop offset="1" stop-color="white" stop-opacity="0"/>
</linearGradient>
</defs>
</svg>